<?xml version="1.0" encoding="UTF-8" standalone="no"?>
<!-- Generator: Adobe Illustrator 16.0.0, SVG Export Plug-In . SVG Version: 6.00 Build 0)  -->

<svg
   xmlns:dc="http://purl.org/dc/elements/1.1/"
   xmlns:cc="http://creativecommons.org/ns#"
   xmlns:rdf="http://www.w3.org/1999/02/22-rdf-syntax-ns#"
   xmlns:svg="http://www.w3.org/2000/svg"
   xmlns="http://www.w3.org/2000/svg"
   xmlns:sodipodi="http://sodipodi.sourceforge.net/DTD/sodipodi-0.dtd"
   xmlns:inkscape="http://www.inkscape.org/namespaces/inkscape"
   version="1.1"
   id="Capa_1"
   x="0px"
   y="0px"
   width="70"
   height="70"
   viewBox="0 0 69.726562 69.726562"
   xml:space="preserve"
   inkscape:version="0.91 r13725"
   sodipodi:docname="historial.svg"><metadata
     id="metadata42"><rdf:RDF><cc:Work
         rdf:about=""><dc:format>image/svg+xml</dc:format><dc:type
           rdf:resource="http://purl.org/dc/dcmitype/StillImage" /><dc:title></dc:title></cc:Work></rdf:RDF></metadata><defs
     id="defs40" /><sodipodi:namedview
     pagecolor="#ffffff"
     bordercolor="#666666"
     borderopacity="1"
     objecttolerance="10"
     gridtolerance="10"
     guidetolerance="10"
     inkscape:pageopacity="0"
     inkscape:pageshadow="2"
     inkscape:window-width="1280"
     inkscape:window-height="738"
     id="namedview38"
     showgrid="false"
     fit-margin-top="0"
     fit-margin-left="0"
     fit-margin-right="0"
     fit-margin-bottom="0"
     inkscape:zoom="0.4609375"
     inkscape:cx="256"
     inkscape:cy="243.20003"
     inkscape:window-x="-8"
     inkscape:window-y="-8"
     inkscape:window-maximized="1"
     inkscape:current-layer="Capa_1" /><g
     id="g3"
     transform="matrix(0.13671874,0,0,0.14391447,0,-1.8349095)"><g
       id="history"><path
         style="opacity:0.9;fill:#ffffff;enable-background:new"
         d="m 267.75,12.75 c -89.25,0 -168.3,48.45 -209.1,122.4 L 0,76.5 l 0,165.75 165.75,0 -71.4,-71.4 C 127.5,107.1 191.25,63.75 267.75,63.75 372.3,63.75 459,150.45 459,255 c 0,104.55 -86.7,191.25 -191.25,191.25 -84.15,0 -153,-53.55 -181.05,-127.5 l -53.55,0 c 28.05,102 122.4,178.5 234.6,178.5 C 402.9,497.25 510,387.6 510,255 510,122.4 400.35,12.75 267.75,12.75 Z m -38.25,127.5 0,130.05 119.85,71.4 20.4,-33.15 -102,-61.2 0,-107.1 -38.25,0 z"
         id="path6"
         inkscape:connector-curvature="0" /></g></g><g
     id="g8"
     transform="translate(0,-427.52344)" /><g
     id="g10"
     transform="translate(0,-427.52344)" /><g
     id="g12"
     transform="translate(0,-427.52344)" /><g
     id="g14"
     transform="translate(0,-427.52344)" /><g
     id="g16"
     transform="translate(0,-427.52344)" /><g
     id="g18"
     transform="translate(0,-427.52344)" /><g
     id="g20"
     transform="translate(0,-427.52344)" /><g
     id="g22"
     transform="translate(0,-427.52344)" /><g
     id="g24"
     transform="translate(0,-427.52344)" /><g
     id="g26"
     transform="translate(0,-427.52344)" /><g
     id="g28"
     transform="translate(0,-427.52344)" /><g
     id="g30"
     transform="translate(0,-427.52344)" /><g
     id="g32"
     transform="translate(0,-427.52344)" /><g
     id="g34"
     transform="translate(0,-427.52344)" /><g
     id="g36"
     transform="translate(0,-427.52344)" /></svg>