<?xml version="1.0" encoding="UTF-8" standalone="no"?>
<svg
   xmlns:dc="http://purl.org/dc/elements/1.1/"
   xmlns:cc="http://creativecommons.org/ns#"
   xmlns:rdf="http://www.w3.org/1999/02/22-rdf-syntax-ns#"
   xmlns:svg="http://www.w3.org/2000/svg"
   xmlns="http://www.w3.org/2000/svg"
   xmlns:sodipodi="http://sodipodi.sourceforge.net/DTD/sodipodi-0.dtd"
   xmlns:inkscape="http://www.inkscape.org/namespaces/inkscape"
   width="70"
   height="70"
   viewBox="0 0 70 70"
   id="svg2"
   version="1.1"
   inkscape:version="0.91 r13725"
   sodipodi:docname="inventario.svg">
  <metadata
     id="metadata10">
    <rdf:RDF>
      <cc:Work
         rdf:about="">
        <dc:format>image/svg+xml</dc:format>
        <dc:type
           rdf:resource="http://purl.org/dc/dcmitype/StillImage" />
        <dc:title></dc:title>
      </cc:Work>
    </rdf:RDF>
  </metadata>
  <defs
     id="defs8" />
  <sodipodi:namedview
     pagecolor="#ffffff"
     bordercolor="#666666"
     borderopacity="1"
     objecttolerance="10"
     gridtolerance="10"
     guidetolerance="10"
     inkscape:pageopacity="0"
     inkscape:pageshadow="2"
     inkscape:window-width="1280"
     inkscape:window-height="738"
     id="namedview6"
     showgrid="false"
     fit-margin-top="0"
     fit-margin-left="0"
     fit-margin-right="0"
     fit-margin-bottom="0"
     inkscape:zoom="0.11523438"
     inkscape:cx="832"
     inkscape:cy="768"
     inkscape:window-x="-8"
     inkscape:window-y="-8"
     inkscape:window-maximized="1"
     inkscape:current-layer="svg2" />
  <path
     d="m 43.07692,32.0833 q 0,-1.1849 -0.79928,-2.0507 -0.79927,-0.8659 -1.89302,-0.8659 l -10.76924,0 q -1.09375,0 -1.89302,0.8659 -0.79928,0.8658 -0.79928,2.0507 0,1.1849 0.79928,2.0508 Q 28.52163,35 29.61538,35 l 10.76924,0 q 1.09375,0 1.89302,-0.8659 0.79928,-0.8659 0.79928,-2.0508 z m 24.23077,-8.75 0,43.75 q 0,1.1849 -0.79928,2.0508 Q 65.70913,70 64.61538,70 L 5.38462,70 Q 4.29087,70 3.49159,69.1341 2.69231,68.2682 2.69231,67.0833 l 0,-43.75 q 0,-1.1849 0.79928,-2.0507 0.79928,-0.8659 1.89303,-0.8659 l 59.23076,0 q 1.09375,0 1.89303,0.8659 0.79928,0.8658 0.79928,2.0507 z M 70,2.9167 70,14.5833 q 0,1.1849 -0.79928,2.0508 Q 68.40144,17.5 67.30769,17.5 l -64.61538,0 Q 1.59856,17.5 0.79928,16.6341 0,15.7682 0,14.5833 L 0,2.9167 Q 0,1.7318 0.79928,0.8659 1.59856,0 2.69231,0 L 67.30769,0 Q 68.40144,0 69.20072,0.8659 70,1.7318 70,2.9167 Z"
     id="path4"
     style="fill:#ffffff;fill-opacity:1"
     inkscape:connector-curvature="0" />
</svg>
