<?xml version="1.0" encoding="UTF-8" standalone="no"?>
<!-- Created with Inkscape (http://www.inkscape.org/) -->

<svg
   xmlns:dc="http://purl.org/dc/elements/1.1/"
   xmlns:cc="http://creativecommons.org/ns#"
   xmlns:rdf="http://www.w3.org/1999/02/22-rdf-syntax-ns#"
   xmlns:svg="http://www.w3.org/2000/svg"
   xmlns="http://www.w3.org/2000/svg"
   xmlns:sodipodi="http://sodipodi.sourceforge.net/DTD/sodipodi-0.dtd"
   xmlns:inkscape="http://www.inkscape.org/namespaces/inkscape"
   width="70"
   height="70"
   viewBox="0 0 70.000001 70.000001"
   id="svg4408"
   version="1.1"
   inkscape:version="0.91 r13725"
   sodipodi:docname="prescripcion.svg">
  <defs
     id="defs4410">
    <clipPath
       id="clipPath4974"
       clipPathUnits="userSpaceOnUse">
      <path
         inkscape:connector-curvature="0"
         id="path4976"
         d="M 0,480 805,480 805,0 0,0 0,480 Z" />
    </clipPath>
    <linearGradient
       id="linearGradient5034"
       spreadMethod="pad"
       gradientTransform="matrix(133.80884,-133.80884,-133.80884,-133.80884,115.90597,362.68808)"
       gradientUnits="userSpaceOnUse"
       y2="0"
       x2="1"
       y1="0"
       x1="0">
      <stop
         id="stop5036"
         offset="0"
         style="stop-opacity:1;stop-color:#f44336" />
      <stop
         id="stop5038"
         offset="1"
         style="stop-opacity:1;stop-color:#d32f2f" />
    </linearGradient>
    <clipPath
       id="clipPath5046"
       clipPathUnits="userSpaceOnUse">
      <path
         inkscape:connector-curvature="0"
         id="path5048"
         d="m 121.313,411.349 c -2.564,0 -4.642,-2.078 -4.642,-4.643 l 0,0 0,-45.447 -44.118,0 c -2.565,0 -4.643,-2.078 -4.643,-4.642 l 0,0 0,-83.804 c 0,-2.564 2.078,-4.643 4.643,-4.643 l 0,0 44.118,0 0,-42.788 c 0,-2.564 2.078,-4.643 4.642,-4.643 l 0,0 83.803,0 c 2.564,0 4.642,2.079 4.642,4.643 l 0,0 0,42.788 44.118,0 c 2.565,0 4.643,2.079 4.643,4.643 l 0,0 0,83.804 c 0,2.564 -2.078,4.642 -4.643,4.642 l 0,0 -44.118,0 0,45.447 c 0,2.565 -2.078,4.643 -4.642,4.643 l 0,0 -83.803,0 z M 68.16,272.813 l 0,83.804 c 0,2.422 1.971,4.392 4.393,4.392 l 0,0 44.118,0 0.25,0 0,0.25 0,45.447 c 0,2.423 1.97,4.393 4.392,4.393 l 0,0 83.803,0 c 2.422,0 4.393,-1.97 4.393,-4.393 l 0,0 0,-45.447 0,-0.25 0.249,0 44.118,0 c 2.422,0 4.393,-1.97 4.393,-4.392 l 0,0 0,-83.804 c 0,-2.422 -1.971,-4.392 -4.393,-4.392 l 0,0 -44.118,0 -0.249,0 0,-0.251 0,-42.788 c 0,-2.422 -1.971,-4.392 -4.393,-4.392 l 0,0 -83.803,0 c -2.422,0 -4.392,1.97 -4.392,4.392 l 0,0 0,42.788 0,0.251 -0.25,0 -44.118,0 c -2.422,0 -4.393,1.97 -4.393,4.392" />
    </clipPath>
    <linearGradient
       id="linearGradient5058"
       spreadMethod="pad"
       gradientTransform="matrix(139.79434,-139.79434,-139.79434,-139.79434,93.317368,385.2767)"
       gradientUnits="userSpaceOnUse"
       y2="0"
       x2="1"
       y1="0"
       x1="0">
      <stop
         id="stop5060"
         offset="0"
         style="stop-opacity:0.50000763;stop-color:#ffffff" />
      <stop
         id="stop5062"
         offset="1"
         style="stop-opacity:0.29999237;stop-color:#ffffff" />
    </linearGradient>
    <mask
       id="mask5064"
       height="1"
       width="1"
       y="0"
       x="0"
       maskUnits="userSpaceOnUse">
      <g
         id="g5066">
        <g
           id="g5068">
          <g
             id="g5070">
            <g
               id="g5072">
              <path
                 inkscape:connector-curvature="0"
                 id="path5074"
                 style="fill:url(#linearGradient5058);stroke:none"
                 d="m -32768,32767 65535,0 0,-65535 -65535,0 0,65535 z" />
            </g>
          </g>
        </g>
      </g>
    </mask>
    <linearGradient
       id="linearGradient5080"
       spreadMethod="pad"
       gradientTransform="matrix(139.79434,-139.79434,-139.79434,-139.79434,93.317368,385.2767)"
       gradientUnits="userSpaceOnUse"
       y2="0"
       x2="1"
       y1="0"
       x1="0">
      <stop
         id="stop5082"
         offset="0"
         style="stop-opacity:1;stop-color:#ffffff" />
      <stop
         id="stop5084"
         offset="1"
         style="stop-opacity:1;stop-color:#000000" />
    </linearGradient>
    <clipPath
       id="clipPath5092"
       clipPathUnits="userSpaceOnUse">
      <path
         inkscape:connector-curvature="0"
         id="path5094"
         d="M 0,480 805,480 805,0 0,0 0,480 Z" />
    </clipPath>
    <clipPath
       id="clipPath5100"
       clipPathUnits="userSpaceOnUse">
      <path
         inkscape:connector-curvature="0"
         id="path5102"
         d="m 132.761,377.671 61.881,0 0,-126.497 -61.881,0 0,126.497 z" />
    </clipPath>
    <linearGradient
       id="linearGradient5264"
       spreadMethod="pad"
       gradientTransform="matrix(133.80884,-133.80884,-133.80884,-133.80884,377.78662,362.94839)"
       gradientUnits="userSpaceOnUse"
       y2="0"
       x2="1"
       y1="0"
       x1="0">
      <stop
         id="stop5266"
         offset="0"
         style="stop-opacity:1;stop-color:#f44336" />
      <stop
         id="stop5268"
         offset="1"
         style="stop-opacity:1;stop-color:#d32f2f" />
    </linearGradient>
    <clipPath
       id="clipPath5276"
       clipPathUnits="userSpaceOnUse">
      <path
         inkscape:connector-curvature="0"
         id="path5278"
         d="m 383.193,411.61 c -2.563,0 -4.642,-2.079 -4.642,-4.643 l 0,0 0,-45.448 -44.118,0 c -2.564,0 -4.643,-2.078 -4.643,-4.642 l 0,0 0,-83.804 c 0,-2.564 2.079,-4.643 4.643,-4.643 l 0,0 44.118,0 0,-42.787 c 0,-2.565 2.079,-4.643 4.642,-4.643 l 0,0 83.804,0 c 2.564,0 4.643,2.078 4.643,4.643 l 0,0 0,42.787 44.118,0 c 2.564,0 4.642,2.079 4.642,4.643 l 0,0 0,83.804 c 0,2.564 -2.078,4.642 -4.642,4.642 l 0,0 -44.118,0 0,45.448 c 0,2.564 -2.079,4.643 -4.643,4.643 l 0,0 -83.804,0 z m -53.153,-138.537 0,83.804 c 0,2.422 1.971,4.392 4.393,4.392 l 0,0 44.118,0 0.25,0 0,0.25 0,45.448 c 0,2.422 1.97,4.392 4.392,4.392 l 0,0 83.804,0 c 2.422,0 4.392,-1.97 4.392,-4.392 l 0,0 0,-45.448 0,-0.25 0.251,0 44.118,0 c 2.422,0 4.392,-1.97 4.392,-4.392 l 0,0 0,-83.804 c 0,-2.421 -1.97,-4.392 -4.392,-4.392 l 0,0 -44.118,0 -0.251,0 0,-0.251 0,-42.787 c 0,-2.422 -1.97,-4.393 -4.392,-4.393 l 0,0 -83.804,0 c -2.422,0 -4.392,1.971 -4.392,4.393 l 0,0 0,42.787 0,0.251 -0.25,0 -44.118,0 c -2.422,0 -4.393,1.971 -4.393,4.392" />
    </clipPath>
    <linearGradient
       id="linearGradient5288"
       spreadMethod="pad"
       gradientTransform="matrix(139.79434,-139.79434,-139.79434,-139.79434,355.19803,385.53699)"
       gradientUnits="userSpaceOnUse"
       y2="0"
       x2="1"
       y1="0"
       x1="0">
      <stop
         id="stop5290"
         offset="0"
         style="stop-opacity:0.50000763;stop-color:#ffffff" />
      <stop
         id="stop5292"
         offset="1"
         style="stop-opacity:0.29999237;stop-color:#ffffff" />
    </linearGradient>
    <mask
       id="mask5294"
       height="1"
       width="1"
       y="0"
       x="0"
       maskUnits="userSpaceOnUse">
      <g
         id="g5296">
        <g
           id="g5298">
          <g
             id="g5300">
            <g
               id="g5302">
              <path
                 inkscape:connector-curvature="0"
                 id="path5304"
                 style="fill:url(#linearGradient5288);stroke:none"
                 d="m -32768,32767 65535,0 0,-65535 -65535,0 0,65535 z" />
            </g>
          </g>
        </g>
      </g>
    </mask>
    <linearGradient
       id="linearGradient5310"
       spreadMethod="pad"
       gradientTransform="matrix(139.79434,-139.79434,-139.79434,-139.79434,355.19803,385.53699)"
       gradientUnits="userSpaceOnUse"
       y2="0"
       x2="1"
       y1="0"
       x1="0">
      <stop
         id="stop5312"
         offset="0"
         style="stop-opacity:1;stop-color:#ffffff" />
      <stop
         id="stop5314"
         offset="1"
         style="stop-opacity:1;stop-color:#000000" />
    </linearGradient>
    <clipPath
       id="clipPath5322"
       clipPathUnits="userSpaceOnUse">
      <path
         inkscape:connector-curvature="0"
         id="path5324"
         d="M 0,480 805,480 805,0 0,0 0,480 Z" />
    </clipPath>
    <clipPath
       id="clipPath5330"
       clipPathUnits="userSpaceOnUse">
      <path
         inkscape:connector-curvature="0"
         id="path5332"
         d="m 394.642,377.931 61.881,0 0,-126.496 -61.881,0 0,126.496 z" />
    </clipPath>
  </defs>
  <sodipodi:namedview
     id="base"
     pagecolor="#ffffff"
     bordercolor="#666666"
     borderopacity="1.0"
     inkscape:pageopacity="0.0"
     inkscape:pageshadow="2"
     inkscape:zoom="0.24748737"
     inkscape:cx="30.36606"
     inkscape:cy="-330.36948"
     inkscape:document-units="px"
     inkscape:current-layer="layer1"
     showgrid="false"
     inkscape:window-width="1280"
     inkscape:window-height="738"
     inkscape:window-x="-8"
     inkscape:window-y="-8"
     inkscape:window-maximized="1"
     units="px"
     fit-margin-top="0"
     fit-margin-left="0"
     fit-margin-right="0"
     fit-margin-bottom="0" />
  <metadata
     id="metadata4413">
    <rdf:RDF>
      <cc:Work
         rdf:about="">
        <dc:format>image/svg+xml</dc:format>
        <dc:type
           rdf:resource="http://purl.org/dc/dcmitype/StillImage" />
        <dc:title></dc:title>
      </cc:Work>
    </rdf:RDF>
  </metadata>
  <g
     inkscape:label="Capa 1"
     inkscape:groupmode="layer"
     id="layer1"
     transform="translate(-188.46712,-559.5397)">
    <g
       id="g6049"
       transform="matrix(0.15250545,0,0,0.15250545,188.46712,559.5397)">
      <g
         id="g6008">
        <g
           id="drive-form">
          <path
             id="path6011"
             d="M 408,0 51,0 C 22.95,0 0,22.95 0,51 l 0,357 c 0,28.05 22.95,51 51,51 l 357,0 c 28.05,0 51,-22.95 51,-51 L 459,51 C 459,22.95 436.05,0 408,0 Z m -255,357 -51,0 0,-51 51,0 0,51 z m 0,-102 -51,0 0,-51 51,0 0,51 z m 0,-102 -51,0 0,-51 51,0 0,51 z m 204,204 -178.5,0 0,-51 178.5,0 0,51 z m 0,-102 -178.5,0 0,-51 178.5,0 0,51 z m 0,-102 -178.5,0 0,-51 178.5,0 0,51 z"
             inkscape:connector-curvature="0"
             style="fill:#ffffff" />
        </g>
      </g>
      <g
         id="g6013" />
      <g
         id="g6015" />
      <g
         id="g6017" />
      <g
         id="g6019" />
      <g
         id="g6021" />
      <g
         id="g6023" />
      <g
         id="g6025" />
      <g
         id="g6027" />
      <g
         id="g6029" />
      <g
         id="g6031" />
      <g
         id="g6033" />
      <g
         id="g6035" />
      <g
         id="g6037" />
      <g
         id="g6039" />
      <g
         id="g6041" />
    </g>
  </g>
</svg>
