<?xml version="1.0" encoding="UTF-8" standalone="no"?>
<!-- Generator: Adobe Illustrator 16.0.0, SVG Export Plug-In . SVG Version: 6.00 Build 0)  -->

<svg
   xmlns:dc="http://purl.org/dc/elements/1.1/"
   xmlns:cc="http://creativecommons.org/ns#"
   xmlns:rdf="http://www.w3.org/1999/02/22-rdf-syntax-ns#"
   xmlns:svg="http://www.w3.org/2000/svg"
   xmlns="http://www.w3.org/2000/svg"
   xmlns:sodipodi="http://sodipodi.sourceforge.net/DTD/sodipodi-0.dtd"
   xmlns:inkscape="http://www.inkscape.org/namespaces/inkscape"
   version="1.1"
   id="Capa_1"
   x="0px"
   y="0px"
   width="70"
   height="70"
   viewBox="0 0 63.102539 63.102539"
   xml:space="preserve"
   inkscape:version="0.91 r13725"
   sodipodi:docname="reporte.svg"><metadata
     id="metadata42"><rdf:RDF><cc:Work
         rdf:about=""><dc:format>image/svg+xml</dc:format><dc:type
           rdf:resource="http://purl.org/dc/dcmitype/StillImage" /><dc:title></dc:title></cc:Work></rdf:RDF></metadata><defs
     id="defs40" /><sodipodi:namedview
     pagecolor="#ffffff"
     bordercolor="#666666"
     borderopacity="1"
     objecttolerance="10"
     gridtolerance="10"
     guidetolerance="10"
     inkscape:pageopacity="0"
     inkscape:pageshadow="2"
     inkscape:window-width="1280"
     inkscape:window-height="738"
     id="namedview38"
     showgrid="false"
     fit-margin-top="0"
     fit-margin-left="0"
     fit-margin-right="0"
     fit-margin-bottom="0"
     inkscape:zoom="0.4609375"
     inkscape:cx="256"
     inkscape:cy="254.58565"
     inkscape:window-x="-8"
     inkscape:window-y="-8"
     inkscape:window-maximized="1"
     inkscape:current-layer="Capa_1" /><g
     id="g3"
     transform="matrix(0.13671904,0,0,0.1374783,0,-0.17528483)"><g
       id="report"><path
         d="m 323.85,1.275 -188.7,0 L 0,136.425 l 0,191.25 135.15,132.6 191.25,0 135.149,-135.15 0,-188.7 L 323.85,1.275 Z m -94.35,364.65 c -17.85,0 -33.15,-15.301 -33.15,-33.15 0,-17.849 15.3,-33.15 33.15,-33.15 17.85,0 33.15,15.301 33.15,33.15 0,17.849 -15.3,33.15 -33.15,33.15 z m 25.5,-109.65 -51,0 0,-153 51,0 0,153 z"
         id="path6"
         inkscape:connector-curvature="0"
         style="fill:#ffffff" /></g></g><g
     id="g8"
     transform="translate(0,-397.17246)" /><g
     id="g10"
     transform="translate(0,-397.17246)" /><g
     id="g12"
     transform="translate(0,-397.17246)" /><g
     id="g14"
     transform="translate(0,-397.17246)" /><g
     id="g16"
     transform="translate(0,-397.17246)" /><g
     id="g18"
     transform="translate(0,-397.17246)" /><g
     id="g20"
     transform="translate(0,-397.17246)" /><g
     id="g22"
     transform="translate(0,-397.17246)" /><g
     id="g24"
     transform="translate(0,-397.17246)" /><g
     id="g26"
     transform="translate(0,-397.17246)" /><g
     id="g28"
     transform="translate(0,-397.17246)" /><g
     id="g30"
     transform="translate(0,-397.17246)" /><g
     id="g32"
     transform="translate(0,-397.17246)" /><g
     id="g34"
     transform="translate(0,-397.17246)" /><g
     id="g36"
     transform="translate(0,-397.17246)" /></svg>